<?xml version="1.0" encoding="UTF-8" standalone="no"?>
<!-- Created with Inkscape (http://www.inkscape.org/) -->

<svg
   width="256"
   height="256"
   viewBox="0 0 256 256"
   version="1.1"
   id="svg1"
   inkscape:version="1.3.2 (091e20e, 2023-11-25, custom)"
   sodipodi:docname="hotfnx.svg"
   inkscape:export-filename="hotfnx32.png"
   inkscape:export-xdpi="12"
   inkscape:export-ydpi="12"
   xmlns:inkscape="http://www.inkscape.org/namespaces/inkscape"
   xmlns:sodipodi="http://sodipodi.sourceforge.net/DTD/sodipodi-0.dtd"
   xmlns="http://www.w3.org/2000/svg"
   xmlns:svg="http://www.w3.org/2000/svg">
  <sodipodi:namedview
     id="namedview1"
     pagecolor="#ffffff"
     bordercolor="#000000"
     borderopacity="0.25"
     inkscape:showpageshadow="2"
     inkscape:pageopacity="0.0"
     inkscape:pagecheckerboard="0"
     inkscape:deskcolor="#d1d1d1"
     inkscape:document-units="mm"
     inkscape:zoom="1"
     inkscape:cx="125"
     inkscape:cy="127.5"
     inkscape:window-width="1366"
     inkscape:window-height="705"
     inkscape:window-x="-8"
     inkscape:window-y="-8"
     inkscape:window-maximized="1"
     inkscape:current-layer="layer1" />
  <g
     inkscape:label="Layer 1"
     inkscape:groupmode="layer"
     id="layer1">
    <path
       id="path25"
       style="stroke-width:15.9999;stroke-linecap:round;stroke-linejoin:round;fill:#008080"
       d="M 100 0 C 100 55.39978 55.39978 100 0 100 L 0 156 C 55.399725 156 100 200.6003 100 256 L 156 256 L 256 256 L 256 156 L 256 100 C 200.6003 100 156 55.399725 156 0 L 100 0 z " />
    <path
       id="path13"
       style="color:#000000;fill:#00ffff;stroke-linecap:round;stroke-linejoin:round;-inkscape-stroke:none"
       d="M 99.121094 74.318359 C 98.771959 74.321086 98.518241 74.363117 98.373047 74.375 A 3.0003 3.0003 0 0 0 98.308594 74.380859 C 97.214884 74.493956 96.261833 74.675966 95.429688 74.792969 A 3.0003 3.0003 0 0 0 95.392578 74.798828 C 94.707366 74.903547 93.901989 74.959023 92.984375 75.044922 A 3.0003 3.0003 0 0 0 92.896484 75.054688 C 92.696357 75.079457 91.990046 75.058587 91.003906 75.546875 C 90.143396 75.972742 89.836928 76.419057 89.833984 76.421875 A 3 3 0 0 0 89.742188 80.664062 A 3 3 0 0 0 93.462891 81.041016 C 93.507549 81.031041 93.508433 81.026672 93.625 81.011719 C 93.6305 81.011009 93.627113 81.010566 93.632812 81.009766 C 94.408819 80.938806 95.286099 80.881631 96.263672 80.734375 C 97.207329 80.601694 98.011362 80.460993 98.736328 80.376953 C 98.881824 80.486115 98.911277 80.553775 99.111328 80.667969 C 99.762526 81.041631 100.25009 81.242651 100.50781 81.382812 A 3.0003 3.0003 0 0 0 100.5332 81.396484 C 100.84637 81.562953 101.12899 81.733562 101.375 81.908203 A 3 3 0 0 0 105.55859 81.199219 A 3 3 0 0 0 104.84766 77.015625 C 104.3506 76.662574 103.84904 76.363201 103.35742 76.101562 C 102.7965 75.797838 102.42538 75.635724 102.19727 75.513672 C 102.18169 75.500284 102.1867 75.507903 102.1582 75.480469 A 3.0003 3.0003 0 0 0 102.14258 75.466797 C 101.76995 75.113194 101.23281 74.710559 100.44531 74.496094 A 3.0003 3.0003 0 0 0 100.44336 74.496094 C 99.914865 74.352247 99.470229 74.315633 99.121094 74.318359 z M 81.511719 80.064453 A 3 3 0 0 0 79.966797 80.214844 L 79.863281 80.253906 A 3.0003 3.0003 0 0 0 79.800781 80.277344 L 79.65625 80.335938 A 3.0003 3.0003 0 0 0 79.646484 80.339844 C 78.642436 80.746618 77.831276 81.302491 77.15625 81.847656 C 75.662721 83.050082 74.480681 84.271996 73.355469 85.21875 A 3.0003 3.0003 0 0 0 73.345703 85.226562 C 72.934005 85.575877 72.142517 86.090262 71.326172 87.083984 L 71.326172 87.085938 C 70.424588 88.180054 70.017775 89.270409 69.707031 90.064453 A 3 3 0 0 0 71.408203 93.951172 A 3 3 0 0 0 75.294922 92.251953 C 75.578291 91.527858 75.810096 91.076235 75.955078 90.900391 A 3.0003 3.0003 0 0 0 75.960938 90.892578 C 76.080545 90.74645 76.517971 90.402775 77.21875 89.808594 L 77.228516 89.800781 C 78.658326 88.596662 79.811278 87.413329 80.921875 86.519531 A 3.0003 3.0003 0 0 0 80.925781 86.515625 C 81.301912 86.211853 81.630232 86.011683 81.886719 85.90625 L 81.894531 85.904297 C 81.895731 85.903804 81.897238 85.900891 81.898438 85.900391 L 82.001953 85.859375 L 82.074219 85.832031 A 3 3 0 0 0 83.830078 81.96875 A 3 3 0 0 0 81.511719 80.064453 z M 112.48438 83.580078 A 3 3 0 0 0 109.99023 85.248047 A 3 3 0 0 0 111.35547 89.265625 C 111.4856 89.32973 111.52059 89.349094 111.5957 89.388672 C 111.6806 89.498898 111.80755 89.652775 112.07812 89.958984 C 112.76333 90.746332 113.45885 91.197191 113.93945 91.517578 A 3.0003 3.0003 0 0 0 113.97852 91.542969 C 114.92538 92.153018 115.91455 92.675224 116.92578 93.119141 A 3.0003 3.0003 0 0 0 116.94531 93.128906 C 118.76208 93.911702 120.57483 94.244021 122.23242 94.460938 A 3.0003 3.0003 0 0 0 122.25195 94.464844 L 122.56836 94.503906 A 3.0003 3.0003 0 0 0 122.59766 94.507812 L 122.89844 94.541016 A 3 3 0 0 0 126.21875 91.902344 A 3 3 0 0 0 123.58008 88.580078 L 123.29492 88.546875 L 123.01172 88.511719 C 121.6116 88.328494 120.35823 88.061557 119.32812 87.619141 C 118.59566 87.296981 117.89346 86.925273 117.23828 86.503906 C 116.84998 86.241611 116.62986 86.05614 116.60156 86.023438 A 3.0003 3.0003 0 0 0 116.58008 85.998047 C 116.79332 86.238879 116.61028 85.681661 115.59766 84.830078 A 3.0003 3.0003 0 0 0 115.5918 84.826172 C 114.81228 84.173182 114.19714 83.97608 114.00781 83.882812 A 3 3 0 0 0 112.48438 83.580078 z M 135.24414 88.982422 A 3 3 0 0 0 132.22656 91.966797 A 3 3 0 0 0 135.21094 94.982422 C 139.22527 95.004762 143.23057 94.99857 147.22656 95 A 3 3 0 0 0 150.22656 92.001953 A 3 3 0 0 0 147.22852 89 C 143.22455 88.9986 139.22968 89.004602 135.24414 88.982422 z M 159.22656 89 A 3 3 0 0 0 156.22656 92 A 3 3 0 0 0 159.22656 95 L 171.22656 95 A 3 3 0 0 0 174.22656 92 A 3 3 0 0 0 171.22656 89 L 159.22656 89 z M 183.22656 89 A 3 3 0 0 0 180.22656 92 A 3 3 0 0 0 183.22656 95 L 188 95 A 3 3 0 0 0 191 92 A 3 3 0 0 0 188 89 L 183.22656 89 z M 69.287109 99.369141 A 3 3 0 0 0 66.351562 102.43359 C 66.402932 104.81383 66.522132 107.18548 66.691406 109.54688 A 3.0003 3.0003 0 0 0 66.691406 109.55859 C 66.818505 111.24648 66.963102 112.98622 67.222656 114.76562 A 3 3 0 0 0 70.625 117.30273 A 3 3 0 0 0 73.160156 113.90039 C 72.936421 112.36656 72.800043 110.76832 72.675781 109.11914 C 72.512709 106.84426 72.398534 104.5717 72.349609 102.30469 A 3 3 0 0 0 69.287109 99.369141 z M 147 109 A 8 8 0 0 0 139 117 L 139 138 L 127 138 L 127 118 A 8 8 0 0 0 119 110 A 8 8 0 0 0 111 118 L 111 170 A 8 8 0 0 0 119 178 A 8 8 0 0 0 127 170 L 127 154 L 139 154 L 139 173 A 8 8 0 0 0 147 181 A 8 8 0 0 0 155 173 L 155 117 A 8 8 0 0 0 147 109 z M 213 110 A 8 8 0 0 0 205 118 A 8 8 0 0 0 213 126 C 215.77273 126 218.33066 126.00742 221 126.01172 L 221 177 A 8 8 0 0 0 229 185 A 8 8 0 0 0 237 177 L 237 126.1543 C 237.11909 126.15771 237.30171 126.15854 237.41602 126.16211 C 239.93185 126.24071 241.28867 126.36483 241.84961 126.44336 C 242.41055 126.52186 241.9707 126.42316 242.4707 126.58984 A 8 8 0 0 0 252.58984 121.5293 A 8 8 0 0 0 247.5293 111.41016 C 247.0293 111.24349 245.59076 110.81079 244.06836 110.59766 C 242.54596 110.38452 240.73349 110.25797 237.91602 110.16992 C 235.75458 110.10238 232.89204 110.06751 229.78125 110.04297 A 8 8 0 0 0 229 110 A 8 8 0 0 0 228.74414 110.0332 C 223.97567 110.00173 218.54346 110 213 110 z M 179.87109 117.5293 C 177.07255 117.56238 174.30543 118.32357 171.53906 120.08398 C 167.32364 122.76653 165.86055 126.37914 165.17383 127.61523 C 164.4871 128.85134 162.81912 132.33975 162.07422 137.74023 C 161.32932 143.14073 160.66602 151.66602 160.66602 157.66602 C 160.66602 163.666 161.7251 167.54882 161.90625 168.27344 C 161.99685 168.63575 162.05189 169.28185 162.56445 170.69141 C 163.07702 172.10095 164.21522 173.86171 165.34375 174.99023 C 167.60083 177.24732 170.79366 179.14924 175.26367 180.14258 C 179.73369 181.13591 185.49591 181.19637 191.24414 178.32227 C 196.99237 175.44815 200.65652 171.17731 203.11719 167.24023 C 205.57785 163.30318 205.99747 158.96375 206.14844 156.69922 C 206.29941 154.43469 206.64427 150.99939 206.82422 147.40039 C 207.00417 143.80139 207.06467 140.58861 206.79297 137.87109 C 206.52122 135.15355 203.62414 130.51433 204.65625 132.0625 C 205.68832 133.61062 204.49808 130.85158 202.15625 128.50977 C 199.81442 126.16794 198.08877 125.55528 197.77148 125.34375 C 197.45418 125.13221 197.15288 124.46511 194.57812 123.17773 C 194.16585 122.97159 194.01907 122.996 193.66211 122.86523 C 192.47811 121.90693 191.78814 121.65482 191.75977 121.66992 C 191.43026 121.44745 188.61466 119.03502 184.29883 118.03906 C 183.21705 117.78942 182.14206 117.62318 181.07227 117.55859 C 180.67109 117.53438 180.27089 117.52457 179.87109 117.5293 z M 75.984375 121.79297 A 3 3 0 0 0 73.138672 122.73828 A 3 3 0 0 0 73.386719 126.97266 L 73.388672 126.97266 L 73.494141 127.07227 C 73.6463 127.21381 73.866954 127.4817 74.142578 127.87891 A 3.0003 3.0003 0 0 0 74.175781 127.92578 C 74.302875 128.10174 74.677538 128.801 75.691406 129.41797 C 75.985969 129.59771 75.944058 129.55889 75.988281 129.56641 C 76.207649 129.82967 76.346088 130.14199 76.636719 130.35547 A 3.0003 3.0003 0 0 0 76.648438 130.36328 C 77.397027 130.90768 77.986607 131.10457 78.242188 131.22266 C 78.642041 131.40743 78.714933 131.44603 78.722656 131.44141 C 79.187326 132.1011 79.693791 132.59957 80.070312 132.9043 C 80.907686 133.58216 81.565207 134.09876 81.957031 134.54492 A 3 3 0 0 0 86.189453 134.82031 A 3 3 0 0 0 86.464844 130.58594 C 85.528148 129.51935 84.565858 128.8232 83.845703 128.24023 C 83.618436 128.05631 83.575387 127.9739 83.634766 128.06836 A 3.0003 3.0003 0 0 0 83.621094 128.04688 C 83.462539 127.79971 83.139191 127.20689 82.345703 126.63281 C 81.601867 126.0939 81.011906 125.89476 80.757812 125.77734 C 80.51103 125.66332 80.555551 125.68814 80.460938 125.64258 C 80.28463 125.33544 79.973549 124.9361 79.302734 124.53516 L 79.298828 124.5332 C 78.895002 124.2924 79.056562 124.40975 79.042969 124.41797 L 79.056641 124.4375 C 79.039321 124.41682 79.051067 124.43522 79.029297 124.40625 C 78.671749 123.89271 78.232785 123.28307 77.582031 122.67773 A 3.0003 3.0003 0 0 0 77.574219 122.67188 L 77.439453 122.54688 A 3.0003 3.0003 0 0 0 77.394531 122.50781 L 77.373047 122.48828 A 3 3 0 0 0 75.984375 121.79297 z M 75.273438 128.69922 C 75.307867 128.77202 75.391304 128.81762 75.429688 128.88867 C 75.436587 128.89267 75.290614 128.73383 75.306641 128.76562 L 75.273438 128.69922 z M 78.556641 131.26172 C 78.571101 131.28472 78.585029 131.28609 78.599609 131.30859 C 78.609699 131.32239 78.556163 131.26306 78.570312 131.28516 L 78.556641 131.26172 z M 181.65625 132.77734 C 181.69174 132.79004 181.77008 132.88786 181.86523 133.07812 C 181.96403 133.27576 182.31312 133.70164 182.54688 134.03906 C 182.24378 133.66249 181.78899 133.16553 181.70312 132.99023 C 181.62811 132.83709 181.62076 132.76465 181.65625 132.77734 z M 180.70117 133.62891 C 180.70717 133.62991 181.2138 133.86844 182.89648 134.99023 C 183.35819 135.29804 183.68996 135.44529 184.09766 135.66602 C 184.6184 136.14079 185.08927 136.65499 185.75586 136.98828 C 186.81119 137.51594 187.43446 137.72025 187.81445 137.79883 C 187.70703 137.80283 187.66155 137.83293 188.89648 138.65625 C 190.27016 139.57203 190.57724 139.76943 190.48633 139.60938 C 190.54033 139.70037 190.72337 139.98255 190.86914 140.20508 C 190.92234 141.25458 190.98119 143.85098 190.84375 146.59961 C 190.69037 149.66727 190.36596 152.8993 190.18359 155.63477 C 190.00123 158.37022 190.42149 157.3635 189.54883 158.75977 C 188.67617 160.15601 185.67493 163.21917 184.08984 164.01172 C 182.50476 164.80426 180.2663 164.86343 178.73633 164.52344 C 177.69502 164.29204 177.5839 164.11602 177.32031 163.94727 C 176.91764 162.45175 176.66602 161.88886 176.66602 157.66602 C 176.66602 152.99935 177.33734 144.19194 177.92578 139.92578 C 178.51422 135.65963 178.18021 137.14865 179.16016 135.38477 C 179.63251 134.53452 179.99479 134.01874 180.18945 133.73633 C 180.40242 133.70673 180.69793 133.62813 180.70117 133.62891 z M 184.51562 135.90039 C 184.68662 135.98699 184.95696 136.16208 185.08594 136.2207 C 185.39851 136.36278 185.10324 136.2813 184.51562 135.90039 z M 88.890625 140.00195 A 3 3 0 0 0 85.960938 143.07031 C 85.979247 143.86001 85.986878 144.66069 85.992188 145.47461 C 86.008997 148.63459 85.993008 151.8106 86 155.00586 A 3 3 0 0 0 89.005859 158 A 3 3 0 0 0 92 154.99414 C 91.9931 151.82724 92.009187 148.64161 91.992188 145.43945 A 3.0003 3.0003 0 0 0 91.992188 145.4375 A 3.0003 3.0003 0 0 0 91.992188 145.43555 C 91.986788 144.61238 91.978614 143.77867 91.958984 142.93164 A 3 3 0 0 0 88.890625 140.00195 z M 89 164 A 3 3 0 0 0 86 167 L 86 179 A 3 3 0 0 0 89 182 A 3 3 0 0 0 92 179 L 92 167 A 3 3 0 0 0 89 164 z M 246.63086 189.00195 A 8 8 0 0 0 244.55469 189.23828 A 8 8 0 0 0 239.63477 192.88477 C 238.63477 194.55142 237.56535 196.15127 237.51562 196.21094 C 237.46593 196.27064 236.02967 197.27181 234.54883 199.86328 C 233.29541 202.05674 232.66104 203.73679 232.57422 204.07227 C 232.53083 203.9562 232.10693 204.20786 230.80078 206.38477 C 230.70247 206.54862 230.62291 206.6982 230.5332 206.85547 C 228.47792 203.10881 226.06221 198.74832 223.48828 194.11523 A 8 8 0 0 0 218.69141 190.30859 A 8 8 0 0 0 212.60938 191.00586 A 8 8 0 0 0 209.5 201.88477 C 212.83333 207.88475 216.16722 213.88609 218.29297 217.81055 C 219.72651 220.45708 220.52482 222.05854 221.30859 223.45703 C 221.24527 223.54141 221.18177 223.62559 221.15625 223.66406 C 221.09217 223.71613 221.04703 223.75168 220.80664 223.95508 C 220.1427 224.51687 219.19428 225.5237 218.48438 226.51758 C 217.06458 228.5053 215.93128 230.48189 215.24805 231.33594 C 214.56481 232.18999 213.57058 232.84148 211.75391 234.96094 C 209.93723 237.0804 209.00456 239.08855 208.33789 240.42188 A 8 8 0 0 0 211.91602 251.15625 A 8 8 0 0 0 222.65039 247.57812 C 223.31706 246.2448 223.71903 245.58692 223.90234 245.37305 C 224.08566 245.15918 225.75682 243.80935 227.74023 241.33008 C 228.93314 239.83895 229.82024 238.48945 230.49219 237.42188 C 230.61629 237.65248 230.72238 237.85939 230.88086 238.13672 C 231.93718 239.98528 232.90385 241.40473 232.80664 241.19336 C 232.78094 241.30606 232.6146 241.46159 233.50586 243.24414 C 233.68624 243.6049 233.99002 243.82075 234.22266 244.14062 C 234.23166 244.16882 234.22868 244.16877 234.23828 244.19727 C 234.74027 245.70321 235.39974 247.30403 236.06641 248.9707 A 8 8 0 0 0 246.46484 253.42773 A 8 8 0 0 0 250.92188 243.0293 C 250.25522 241.36263 249.58071 239.63076 249.41602 239.13672 C 249.33372 238.88971 249.33811 238.88748 249.23242 238.5 C 249.14622 238.1839 248.77084 236.94299 247.65625 235.46289 C 247.48494 234.98143 247.42059 234.63025 247.15039 234.08984 C 246.01435 231.81777 245.03301 230.65152 244.77344 230.19727 C 244.51386 229.74301 244.05532 228.47054 242.77734 226.42578 C 241.83096 224.91156 240.94835 223.73571 240.22656 222.75195 C 240.98859 221.20439 240.91786 221.04444 240.78516 221.13281 C 240.93846 220.92615 241.24108 220.4665 241.81641 219.60352 C 242.11421 219.15681 242.17555 218.92322 242.36719 218.52539 C 242.83636 217.93689 243.37509 217.46076 243.65039 216.91016 C 244.37464 215.46165 244.56691 214.95712 244.5332 214.88477 C 244.84199 214.60144 245.54846 213.69596 246.43945 212.13672 C 247.57883 210.14282 248.22694 208.52488 248.40234 207.99023 C 248.50116 207.9492 248.84783 207.60565 249.80664 206.45508 C 251.42358 204.51475 252.35352 202.7819 253.35352 201.11523 A 8 8 0 0 0 250.60938 190.14062 A 8 8 0 0 0 246.63086 189.00195 z M 175.23047 189.91602 C 174.08494 189.89282 173.03864 190.04988 171.68555 190.27539 C 171.04238 190.38259 170.29202 190.61409 169.58594 190.88672 C 168.91985 191.00773 167.2413 191.47806 165.68164 192.14648 C 162.99363 193.29849 161.43133 194.5882 159.84375 196.17578 C 158.74159 197.27794 157.8937 198.27663 157.97656 198.28711 C 157.28445 198.89228 156.55262 199.67405 156.01172 200.75586 C 155.01904 202.74126 155.15825 203.23926 155.14062 203.4375 C 155.10653 203.4483 153.82587 206.22315 153.39453 209.67383 C 152.92889 213.39891 152.97069 217.5349 153.1875 220.57031 C 153.40432 223.60576 153.7636 223.99734 154.04492 226.66992 C 154.32625 229.34251 154.67839 235.44338 155.01172 241.44336 A 8 8 0 0 0 163.44336 248.98828 A 8 8 0 0 0 170.98828 240.55664 C 170.65495 234.55666 170.34042 228.65682 169.95508 224.99609 C 169.56974 221.33536 169.263 221.0609 169.14648 219.42969 C 169.02997 217.79846 169.07048 213.26643 169.27148 211.6582 C 169.47251 210.04997 169.21398 211.33804 170.09375 209.13867 C 170.18895 208.90057 170.17785 208.81692 170.25195 208.5957 C 170.51516 208.23628 171.10857 207.53791 171.15625 207.49023 C 171.20405 207.44243 171.40809 207.2846 171.65625 207.10547 C 171.74865 207.10847 172.52733 206.86194 173.11523 206.68555 C 173.13333 207.19985 173.06998 206.71045 173.17188 209.46289 C 173.3407 214.02129 173.67419 221.674 173.83789 227.07617 C 173.91979 229.77726 173.89819 232.21093 174.42578 235.04688 C 174.9534 237.88283 176.47537 241.46577 179.25977 243.87891 C 184.82858 248.70517 189.86667 249 194.5 249 C 195.65833 249 197.06852 248.9707 198.94727 248.21094 C 200.826 247.45115 202.90807 245.53333 203.81641 243.77344 C 205.63306 240.25365 205.07524 238.79309 205.15625 237.25391 C 205.31827 234.17552 205.6485 228.8794 206.14453 222.26562 C 206.64056 215.65186 207.30599 207.66404 207.97266 199.66406 A 8 8 0 0 0 200.66406 191.02734 A 8 8 0 0 0 192.02734 198.33594 C 191.36068 206.33592 190.69342 214.34882 190.18945 221.06836 C 190.00957 223.46674 189.96537 224.5252 189.82812 226.54492 C 189.65809 220.95098 189.32618 213.30093 189.16211 208.87109 C 188.99761 204.42952 189.26382 202.82661 188.25586 199.80273 C 187.24791 196.77892 185.55442 195.18323 185.56641 195.19922 C 185.57841 195.21522 182.85406 191.63743 179.36523 190.64062 C 177.62083 190.14223 176.37599 189.9392 175.23047 189.91602 z M 138.34961 190.95898 C 130.82084 190.93399 123.71924 191.12314 117.61328 193.03125 C 113.54265 194.30333 109.2914 197.76287 107.71289 201.73047 C 106.13439 205.69805 106.25351 208.96806 106.16797 212.64648 C 106.08341 216.28232 106.04234 220.81615 106.02148 225.79102 A 8 8 0 0 0 106 226 A 8 8 0 0 0 106.01953 226.19531 C 105.99985 231.17739 106 236.5817 106 242 A 8 8 0 0 0 114 250 A 8 8 0 0 0 122 242 C 122 239.25 122.009 236.68751 122.01172 234 L 136 234 A 8 8 0 0 0 144 226 A 8 8 0 0 0 136 218 L 122.08594 218 C 122.10733 216.21521 122.13 214.48589 122.16406 213.01953 C 122.23546 209.94828 122.48673 208.63454 122.53125 208.28711 C 125.16839 207.50883 135.75081 207 146 207 A 8 8 0 0 0 154 199 A 8 8 0 0 0 146 191 C 143.41667 191 140.8592 190.96732 138.34961 190.95898 z M 167.54492 191.89453 C 167.24197 192.09073 167.26159 192.05956 167.54492 191.89453 z M 242.96484 217.35156 C 243.03534 217.16343 242.89704 217.59655 242.49023 218.2832 C 242.6329 217.96991 242.91777 217.47709 242.96484 217.35156 z M 236.45508 246.45312 C 236.7925 246.68689 237.21839 247.03595 237.41602 247.13477 C 237.76231 247.30791 237.70326 247.3073 237.41602 247.13477 C 237.20699 247.00921 236.89082 246.80388 236.45508 246.45312 z " />
  </g>
</svg>
